HIERARCHY
ROOT root
{
	OFFSET 0.000000 0.000000 0.000000
	CHANNELS 6 Xposition Yposition Zposition Zrotation Yrotation Xrotation
	JOINT lhip
	{
		OFFSET 0.058581 -0.082280 -0.017664
		CHANNELS 3 Zrotation Yrotation Xrotation
		JOINT lknee
		{
			OFFSET 0.043451 -0.386469 0.008037
			CHANNELS 3 Zrotation Yrotation Xrotation
			JOINT lankle
			{
				OFFSET -0.014790 -0.426874 -0.037428
				CHANNELS 3 Zrotation Yrotation Xrotation
				JOINT ltoe
				{
					OFFSET 0.041054 -0.060286 0.122042
					CHANNELS 3 Zrotation Yrotation Xrotation
					End Site
					{
						OFFSET 0.000000 0.000000 0.000000
					}
				}
			}
		}
	}
	JOINT rhip
	{
		OFFSET -0.060310 -0.090513 -0.013543
		CHANNELS 3 Zrotation Yrotation Xrotation
		JOINT rknee
		{
			OFFSET -0.043257 -0.383688 -0.004843
			CHANNELS 3 Zrotation Yrotation Xrotation
			JOINT rankle
			{
				OFFSET 0.019056 -0.420046 -0.034562
				CHANNELS 3 Zrotation Yrotation Xrotation
				JOINT rtoe
				{
					OFFSET -0.034840 -0.062106 0.130323
					CHANNELS 3 Zrotation Yrotation Xrotation
					End Site
					{
						OFFSET 0.000000 0.000000 0.000000
					}
				}
			}
		}
	}
	JOINT lowerback
	{
		OFFSET 0.004439 0.124404 -0.038385
		CHANNELS 3 Zrotation Yrotation Xrotation
		JOINT upperback
		{
			OFFSET 0.004488 0.137956 0.026820
			CHANNELS 3 Zrotation Yrotation Xrotation
			JOINT chest
			{
				OFFSET -0.002265 0.056032 0.002855
				CHANNELS 3 Zrotation Yrotation Xrotation
				JOINT lowerneck
				{
					OFFSET -0.013390 0.211636 -0.033468
					CHANNELS 3 Zrotation Yrotation Xrotation
					JOINT upperneck
					{
						OFFSET 0.010113 0.088937 0.050410
						CHANNELS 3 Zrotation Yrotation Xrotation
						End Site
						{
							OFFSET 0.000000 0.000000 0.000000
						}
					}
				}
				JOINT lclavicle
				{
					OFFSET 0.071702 0.114000 -0.018898
					CHANNELS 3 Zrotation Yrotation Xrotation
					JOINT lshoulder
					{
						OFFSET 0.122921 0.045205 -0.019046
						CHANNELS 3 Zrotation Yrotation Xrotation
						JOINT lelbow
						{
							OFFSET 0.255332 -0.015649 -0.022946
							CHANNELS 3 Zrotation Yrotation Xrotation
							JOINT lwrist
							{
								OFFSET 0.265709 0.012698 -0.007375
								CHANNELS 3 Zrotation Yrotation Xrotation
								End Site
								{
									OFFSET 0.000000 0.000000 0.000000
								}
							}
						}
					}
				}
				JOINT rclavicle
				{
					OFFSET -0.082954 0.112472 -0.023707
					CHANNELS 3 Zrotation Yrotation Xrotation
					JOINT rshoulder
					{
						OFFSET -0.113228 0.046853 -0.008472
						CHANNELS 3 Zrotation Yrotation Xrotation
						JOINT relbow
						{
							OFFSET -0.260127 -0.014369 -0.031269
							CHANNELS 3 Zrotation Yrotation Xrotation
							JOINT rwrist
							{
								OFFSET -0.269108 0.006794 -0.006027
								CHANNELS 3 Zrotation Yrotation Xrotation
								End Site
								{
									OFFSET 0.000000 0.000000 0.000000
								}
							}
						}
					}
				}
			}
		}
	}
}
MOTION
Frames: 14
Frame Time: 0.033333
-0.068048 0.811603 0.980617 -4.402701 0.747912 90.782039 9.070681 8.675755 5.494555 -1.662564 4.213544 -5.295484 -2.027540 8.876541 -6.679551 0.000000 -0.000000 0.000000 -7.175569 -6.660045 0.975722 0.824857 -8.978982 -2.058642 4.755844 -6.642881 -3.505405 0.000000 -0.000000 0.000000 -3.036509 -0.550772 -5.011843 2.264060 -2.359439 8.995793 0.579313 -1.908110 -3.624901 -0.331217 -14.965490 0.850840 0.784138 -22.236726 2.586590 -28.477671 -1.196699 6.751771 -59.425248 -9.135303 15.316090 7.285309 -19.660048 -0.939431 1.451434 -13.678262 -4.842829 26.423923 8.466405 5.030455 55.838334 9.617267 9.398942 -7.946596 9.251890 -17.386991 -1.583876 11.973486 -19.052446 
-0.067977 0.811160 0.980397 -4.389350 0.892041 90.743668 9.229310 8.623883 5.530917 -1.656200 4.248579 -5.285605 -2.035054 8.870931 -6.681336 0.000000 -0.000000 0.000000 -7.039473 -6.731741 1.068711 0.844816 -9.005046 -2.135961 4.887149 -6.594908 -3.504251 0.000000 -0.000000 0.000000 -2.648996 -0.781410 -4.844981 1.956616 -2.170746 8.481730 0.561985 -1.946436 -3.168337 -0.156310 -14.797543 0.474973 0.636130 -22.280585 3.025945 -28.192606 -1.199712 6.667230 -59.671632 -9.142209 14.939565 7.342813 -19.844074 -0.301360 1.425417 -13.647588 -5.038775 26.347450 8.510598 5.046350 56.092149 9.646470 9.235383 -8.086785 9.358095 -16.968267 -1.627519 11.999083 -19.268691 
-0.067842 0.810959 0.980324 -4.427413 0.931955 90.784633 9.253019 8.625943 5.493322 -1.650043 4.299094 -5.279503 -1.978402 8.877727 -6.618670 0.000000 -0.000000 0.000000 -7.000327 -6.773575 0.946569 0.827346 -8.960878 -2.030314 4.913641 -6.593262 -3.537018 0.000000 -0.000000 0.000000 -2.600559 -0.793759 -4.960066 1.958270 -2.167103 8.604986 0.565684 -1.955330 -3.189801 -0.096460 -14.689912 0.410229 0.565063 -22.293967 3.061484 -28.179229 -1.227389 6.636075 -59.754831 -9.183605 14.874812 7.428325 -19.848866 -0.455494 1.278931 -13.628234 -5.008264 26.298641 8.529243 5.057893 56.121565 9.681715 9.189457 -8.131627 9.327890 -17.007456 -1.572341 11.978687 -19.183966 
-0.067747 0.810829 0.980306 -4.486799 0.973870 90.785430 9.293032 8.609382 5.480059 -1.660912 4.330692 -5.218735 -1.972796 8.893068 -6.672433 0.000000 -0.000000 0.000000 -6.981048 -6.779143 0.929637 0.869924 -8.886984 -2.035625 4.921017 -6.560722 -3.503964 0.000000 -0.000000 0.000000 -2.588101 -0.808711 -4.951412 1.986819 -2.216763 8.699417 0.562662 -1.869858 -3.295463 -0.096575 -14.670986 0.393588 0.593286 -22.238169 3.149393 -28.177296 -1.167157 6.550518 -59.830338 -9.195463 14.831703 7.392329 -19.745868 -0.447844 1.340922 -13.663184 -4.914680 26.317292 8.474901 5.003665 56.073741 9.589404 9.113270 -8.418162 9.619833 -16.905996 -2.006015 12.060598 -18.627151 
-0.067724 0.810673 0.980300 -4.514170 0.985487 90.766609 9.294674 8.603721 5.540338 -1.643886 4.315110 -5.279127 -1.992098 8.915103 -6.696592 0.000000 -0.000000 0.000000 -6.964771 -6.789522 0.938385 0.858171 -8.870029 -2.032105 4.931306 -6.545417 -3.497056 0.000000 -0.000000 0.000000 -2.572923 -0.819767 -4.918339 1.983275 -2.203934 8.669932 0.564089 -1.847721 -3.284765 -0.124556 -14.653148 0.420988 0.604766 -22.214758 3.170085 -28.152188 -1.140127 6.543210 -59.875426 -9.219950 14.902759 7.350426 -19.631511 -0.378149 1.388378 -13.734080 -4.985158 26.315185 8.445882 4.926119 56.030601 9.593253 9.119479 -8.174721 9.259460 -16.902940 -1.749291 12.074666 -18.882057 
-0.067612 0.810464 0.980242 -4.464662 0.984220 90.772243 9.285090 8.599623 5.504562 -1.615694 4.292581 -5.226326 -2.047788 8.899279 -6.744139 0.000000 -0.000000 0.000000 -6.968910 -6.786578 0.957494 0.853916 -8.927876 -2.056933 4.908114 -6.600550 -3.488101 0.000000 -0.000000 0.000000 -2.572415 -0.881527 -4.970780 1.976330 -2.240251 8.729924 0.554742 -1.885184 -3.234222 -0.096897 -14.618728 0.280260 0.677368 -22.119720 3.186656 -28.200119 -1.100928 6.571685 -59.889251 -9.202179 14.880442 7.371159 -19.627516 -0.469359 1.552879 -13.716713 -5.036507 26.380089 8.445509 4.881291 55.902913 9.662594 9.088417 -8.107077 9.044993 -16.929660 -1.406008 12.033294 -18.967371 
-0.067546 0.810232 0.980174 -4.457183 1.007248 90.793815 9.297585 8.605795 5.509565 -1.610377 4.291619 -5.269201 -2.046928 8.860106 -6.702823 0.000000 -0.000000 0.000000 -6.956958 -6.807821 0.936613 0.875610 -8.924921 -2.054203 4.929890 -6.591430 -3.479949 0.000000 -0.000000 0.000000 -2.543375 -0.902264 -5.000100 1.984007 -2.256331 8.763726 0.543996 -1.925321 -3.221604 -0.089038 -14.570678 0.258194 0.726523 -22.023792 3.067559 -28.205344 -1.039645 6.488321 -59.937146 -9.164945 14.873934 7.286187 -19.470618 -0.532145 1.541598 -13.809727 -5.112899 26.360457 8.465058 4.901888 55.865748 9.747658 9.111694 -8.037110 8.885296 -16.948932 -1.402082 12.059132 -18.912927 
-0.067401 0.810192 0.980126 -4.445922 1.021238 90.786555 9.312432 8.658313 5.468188 -1.608524 4.238774 -5.175683 -1.999546 8.873165 -6.713602 0.000000 -0.000000 0.000000 -6.950728 -6.774855 0.929886 0.860604 -8.957000 -2.013020 4.873813 -6.590271 -3.522111 0.000000 -0.000000 0.000000 -2.510090 -0.925194 -4.939281 1.977656 -2.238656 8.715384 0.550431 -1.952459 -3.248047 -0.098230 -14.560202 0.219609 0.686158 -21.848918 3.124223 -28.227014 -1.053330 6.537517 -60.011759 -9.070024 14.866508 7.240958 -19.451557 -0.629830 1.867978 -13.810745 -5.183118 26.321567 8.450671 4.915509 55.862232 9.646119 9.087588 -7.995103 8.974592 -16.912854 -1.552440 11.977535 -18.914711 
-0.067319 0.810109 0.980086 -4.429772 1.009840 90.783948 9.300887 8.627237 5.481344 -1.619943 4.227261 -5.205987 -1.992737 8.895953 -6.674467 0.000000 -0.000000 0.000000 -6.963157 -6.713048 0.936436 0.857013 -9.007254 -2.000222 4.898937 -6.606106 -3.508915 0.000000 -0.000000 0.000000 -2.491443 -0.963920 -4.833864 1.940257 -2.231703 8.625555 0.544079 -1.935116 -3.259915 -0.109111 -14.572063 0.124870 0.663362 -21.778617 3.269340 -28.287789 -0.964776 6.643652 -60.000015 -8.991420 14.789378 7.217161 -19.539946 -0.571054 1.881277 -13.880207 -5.406374 26.323419 8.413645 4.904055 55.881212 9.597470 9.064697 -8.004883 8.954120 -16.826929 -1.578830 11.996170 -18.987948 
-0.067233 0.810094 0.979970 -4.438506 1.002935 90.804056 9.300185 8.637857 5.449685 -1.631287 4.229068 -5.192115 -2.036381 8.892094 -6.717037 0.000000 -0.000000 0.000000 -6.970769 -6.676457 0.886065 0.850892 -9.062801 -1.972609 4.901108 -6.634305 -3.505361 0.000000 -0.000000 0.000000 -2.559355 -0.943027 -4.998973 1.987324 -2.194790 8.832963 0.556971 -1.903000 -3.267114 -0.068247 -14.505696 0.158715 0.535865 -21.771767 3.409529 -28.275967 -1.006731 6.614651 -60.079500 -8.970520 14.865069 7.220935 -19.501960 -0.660790 1.777406 -13.787388 -5.306093 26.347271 8.425108 4.934540 55.806760 9.609434 9.011349 -8.016509 8.978742 -16.927565 -1.553696 11.957773 -18.860071 
-0.067065 0.810354 0.979911 -4.438968 0.996096 90.856878 9.267119 8.616573 5.325722 -1.613139 4.269816 -5.102653 -2.023414 8.883609 -6.674685 0.000000 -0.000000 0.000000 -6.987278 -6.687213 0.772874 0.853080 -9.048055 -1.899393 4.879783 -6.626242 -3.536371 0.000000 -0.000000 0.000000 -2.570787 -0.932812 -4.971317 1.977082 -2.188714 8.773418 0.554846 -1.899964 -3.285988 -0.061821 -14.528048 0.225387 0.535429 -21.761312 3.412899 -28.253153 -1.031075 6.659703 -60.173269 -8.906933 14.926651 7.284140 -19.433530 -0.750907 1.784523 -13.697434 -5.363819 26.362900 8.418171 4.929543 55.807089 9.593526 9.029063 -8.011675 8.921177 -16.986737 -1.457966 11.913232 -18.900432 
-0.067009 0.810372 0.979902 -4.428929 0.970149 90.858763 9.248729 8.623898 5.319685 -1.640180 4.276606 -5.127577 -2.046997 8.877400 -6.748135 0.000000 -0.000000 0.000000 -7.012529 -6.664361 0.769559 0.841462 -9.079769 -1.889583 4.888626 -6.645654 -3.530977 0.000000 -0.000000 0.000000 -2.599007 -0.923787 -4.983549 1.966558 -2.200145 8.816108 0.537024 -1.902128 -3.260056 -0.043499 -14.483140 0.295243 0.635000 -21.762189 3.210620 -28.246711 -1.005203 6.608414 -60.180486 -8.883869 14.923534 7.212956 -19.320929 -0.719429 1.659014 -13.637639 -5.381651 26.391055 8.414019 4.917895 55.837061 9.626656 9.068814 -8.046525 8.940157 -17.036655 -1.590978 11.963486 -18.804922 
-0.066935 0.810254 0.979866 -4.451276 0.976725 90.803916 9.275931 8.589328 5.384279 -1.674745 4.320157 -5.098144 -2.035773 8.892302 -6.736286 0.000000 -0.000000 0.000000 -7.035368 -6.650792 0.842484 0.878516 -9.062089 -1.914783 4.881525 -6.647354 -3.498396 0.000000 -0.000000 0.000000 -2.567910 -0.902942 -4.963675 1.922436 -2.146397 8.812655 0.524402 -1.897341 -3.231694 -0.005068 -14.483322 0.266295 0.593137 -21.779165 3.321230 -28.330691 -0.931613 6.707782 -60.126929 -8.885831 14.806324 7.271092 -19.405158 -0.644097 1.638161 -13.676325 -5.462042 26.365799 8.418295 4.952201 55.895379 9.645781 9.088950 -8.021018 8.895798 -16.957525 -1.569486 11.982914 -18.942286 
-0.066822 0.810143 0.979867 -4.477852 0.972300 90.732543 9.262277 8.412148 5.463598 -1.688950 4.461185 -5.070456 -1.974124 8.936929 -6.788857 0.000000 -0.000000 0.000000 -7.066224 -6.596245 0.931691 0.889277 -9.054365 -1.931349 4.918532 -6.649495 -3.553160 0.000000 -0.000000 0.000000 -2.531534 -0.874590 -4.893731 1.881486 -2.097274 8.746670 0.518085 -1.955091 -3.141869 0.001210 -14.400844 0.310670 0.559086 -21.756828 3.347988 -28.399144 -0.834629 6.728461 -60.058656 -8.918004 14.694814 7.284630 -19.387411 -0.476629 1.511533 -13.825085 -5.410701 26.359417 8.366451 4.944224 55.937003 9.774784 9.084221 -8.034147 8.871707 -16.883494 -1.582199 12.002827 -18.902879 
